# xmcd CD database file
#
# Track frame offsets:
#	150
#	20138
#	45925
#	65334
#	87669
#	103928
#	118257
#	130252
#	147237
#	157999
#	180424
#	201306
#	215569
#	235310
#
# Disc length: 3340 seconds
#
# Revision: 2
# Processed by: cddbd v1.4PL0 Copyright (c) Steve Scherf et al.
# Submitted via: CDex 1.50
#
DISCID=ce0d0a0e
DTITLE=Black Bottom Stompers - Ace in the Hole
DYEAR=2000
DGENRE=Jazz
TTITLE0=I'm gettin' my Bonus in Love (Williams-Grainger)
TTITLE1=Saint Louis Blues (W. C. Handy)
TTITLE2=Yama Yama Man (Davis-Hoschna)
TTITLE3=Marie (I. Berlin)
TTITLE4=Black Bottom Stomp (J. F. Morton)
TTITLE5=Ace in the Hole (Mitchell-Dempsey)
TTITLE6=Alligator Hop (Oliver)
TTITLE7=Head Hunters Dream (Parham)
TTITLE8=Savoy Rag (P. Mandell)
TTITLE9=Cimes Blues (Oliver)
TTITLE10=Harlem Rythm Dance (Razaf-Williams)
TTITLE11=Blues for George (S. Rimington)
TTITLE12=Flow gently sweet Afton (Traditional)
TTITLE13=Jazz Holidays (Overstreet)
EXTD=YEAR: 2000
EXTT0=
EXTT1=
EXTT2=
EXTT3=
EXTT4=
EXTT5=
EXTT6=
EXTT7=
EXTT8=
EXTT9=
EXTT10=
EXTT11=
EXTT12=
EXTT13=
PLAYORDER=
